<?xml version="1.0" encoding="UTF-8"?>
<svg xmlns="http://www.w3.org/2000/svg" xmlns:xlink="http://www.w3.org/1999/xlink" viewBox="0 0 335.48 332.05">
  <defs>
    <style>
      .cls-1, .cls-2, .cls-3, .cls-4, .cls-5, .cls-6, .cls-7, .cls-8, .cls-9, .cls-10, .cls-11 {
        stroke-width: 0px;
      }

      .cls-1, .cls-12 {
        mix-blend-mode: soft-light;
      }

      .cls-1, .cls-4, .cls-5 {
        fill: #828bc4;
      }

      .cls-2 {
        fill: url(#_ÂÁ_Ï_ÌÌ_È_ËÂÌÚ_216);
      }

      .cls-3 {
        fill: url(#_ÂÁ_Ï_ÌÌ_È_ËÂÌÚ_198);
      }

      .cls-4 {
        opacity: .5;
      }

      .cls-4, .cls-13, .cls-14 {
        mix-blend-mode: multiply;
      }

      .cls-15 {
        isolation: isolate;
      }

      .cls-13 {
        opacity: .6;
      }

      .cls-6 {
        fill: #263c97;
      }

      .cls-7 {
        fill: #2756a6;
      }

      .cls-8 {
        fill: #282f72;
      }

      .cls-9 {
        fill: #8ba1cf;
      }

      .cls-10 {
        fill: #b4c5e5;
      }

      .cls-11 {
        fill: #326bb3;
      }

      .cls-14 {
        opacity: .7;
      }
    </style>
    <linearGradient id="_ÂÁ_Ï_ÌÌ_È_ËÂÌÚ_198" data-name="¡ÂÁ˚ÏˇÌÌ˚È „‡‰ËÂÌÚ 198" x1="102.48" y1="298.61" x2="102.48" y2="105.56" gradientUnits="userSpaceOnUse">
      <stop offset="0" stop-color="#2b307d"/>
      <stop offset=".99" stop-color="#2c2c7f"/>
    </linearGradient>
    <linearGradient id="_ÂÁ_Ï_ÌÌ_È_ËÂÌÚ_216" data-name="¡ÂÁ˚ÏˇÌÌ˚È „‡‰ËÂÌÚ 216" x1="227.79" y1="332.05" x2="227.79" y2="0" gradientUnits="userSpaceOnUse">
      <stop offset="0" stop-color="#2d54a4"/>
      <stop offset=".51" stop-color="#2c3f94"/>
      <stop offset=".99" stop-color="#2c318a"/>
    </linearGradient>
  </defs>
  <g class="cls-15">
    <g id="layer1">
      <g>
        <polygon class="cls-3" points="11.43 298.29 69.74 294.33 69.74 289.4 74.71 287.56 67.26 252.97 100.25 244.13 100.25 240.3 86.38 240.3 86.38 233.05 100.25 230.59 98.24 227.98 39.94 193.93 24.67 187.5 41.06 184.88 38.83 180.44 34.36 178.81 0 116.78 105.01 105.56 118.42 108.45 138.28 153.37 126.36 116.42 144.2 110.27 204.96 123.3 195.4 298.61 11.43 298.29"/>
        <polygon class="cls-6" points="118.42 108.45 70.86 140.91 42.06 137.64 0 116.78 105.01 105.56 118.42 108.45"/>
        <polygon class="cls-6" points="24.67 187.5 57.39 189.84 112.93 166.03 41.06 184.88 24.67 187.5"/>
        <polygon class="cls-6" points="86.38 233.05 104.97 236.46 170.53 225.22 169.39 223.58 100.25 230.59 86.38 233.05"/>
        <polygon class="cls-6" points="67.26 252.97 98.91 258.34 165.31 239.7 100.25 244.13 67.26 252.97"/>
        <polygon class="cls-6" points="69.74 289.4 81.85 296.72 103.45 296.72 74.71 287.56 69.74 289.4"/>
        <polygon class="cls-6" points="69.74 294.33 76.04 296.72 28.56 297.13 69.74 294.33"/>
        <polygon class="cls-6" points="103.45 287.51 132.92 288.45 123.73 291.8 103.45 287.51"/>
        <polygon class="cls-6" points="138.28 153.37 118.42 163.66 165.27 156.88 138.28 153.37"/>
        <polygon class="cls-6" points="126.36 116.42 204.96 123.3 144.2 110.27 126.36 116.42"/>
        <polygon class="cls-6" points="59.37 148.31 88.17 136.85 80.59 145.71 59.37 148.31"/>
        <polygon class="cls-6" points="125.76 261.11 159.28 245.27 178.48 242.68 125.76 261.11"/>
        <polygon class="cls-6" points="125.76 294.33 142.48 287.51 165.31 287.03 138.82 292.14 125.76 294.33"/>
        <polygon class="cls-6" points="139.96 295.52 148.8 293.68 149.81 295.73 139.96 295.52"/>
        <polygon class="cls-6" points="141.84 265.64 156.51 262.47 149.17 267.45 141.84 265.64"/>
        <g class="cls-14">
          <polygon class="cls-5" points="112.93 166.03 124.05 228.18 128.45 228.18 118.42 163.66 138.28 153.37 118.42 108.45 70.86 140.91 72.06 143.26 88.17 136.85 80.59 145.71 88.17 171.54 112.93 166.03"/>
          <polygon class="cls-5" points="104.97 236.46 106.61 239.7 100.25 240.3 100.25 244.13 165.31 239.7 170.53 225.22 104.97 236.46"/>
          <polygon class="cls-5" points="98.91 258.34 97.14 294.71 104.57 296.72 81.85 296.72 81.85 298.16 139.96 298.51 139.96 295.52 148.8 293.68 149.81 295.73 149.81 298.61 163.71 298.61 164.45 287.2 125.76 294.33 133.89 291.02 132.92 288.45 123.73 291.8 103.45 287.51 123.73 288.16 125.76 261.11 159.28 245.27 158.75 241.55 98.91 258.34"/>
          <polygon class="cls-5" points="59.37 148.31 64.8 178.16 56.08 147.03 59.37 148.31"/>
          <polygon class="cls-5" points="38.83 180.44 59.21 180.44 41.06 184.88 38.83 180.44"/>
        </g>
        <g class="cls-12">
          <polygon class="cls-9" points="42.06 137.64 96.76 120.88 102.48 119.33 68.8 140.91 42.06 137.64"/>
          <polygon class="cls-9" points="4.56 116.3 20.21 123.3 72.27 119.33 81.85 108.03 4.56 116.3"/>
          <polygon class="cls-9" points="81.85 115.67 86.38 112.17 91.96 112.17 88.17 115.67 81.85 115.67"/>
          <polygon class="cls-9" points="98.76 235.32 104.57 230.02 132.05 228.18 125.76 232.9 104.97 236.46 98.76 235.32"/>
          <polygon class="cls-9" points="141.84 226.37 141.84 228.18 152.12 228.18 157.88 224.75 141.84 226.37"/>
          <polygon class="cls-9" points="138.28 117.47 143.06 115.66 174.72 116.56 185.62 121.61 138.28 117.47"/>
          <polygon class="cls-9" points="57.39 189.84 74.13 182.66 64.8 178.16 41.06 184.88 24.67 187.5 57.39 189.84"/>
          <polygon class="cls-9" points="76.31 181.72 75.32 178.16 80.15 175.64 92.71 174.69 76.31 181.72"/>
          <polygon class="cls-9" points="35.05 123.3 36.76 125.34 40.45 124.32 46.89 123.23 35.05 123.3"/>
          <polygon class="cls-9" points="67.26 252.97 87.12 247.65 102.48 248.31 97.86 253.8 90.28 252.66 79.91 255.12 67.26 252.97"/>
          <polygon class="cls-9" points="86.38 256.22 88.67 255.12 95.59 255.67 95.59 257.78 86.38 256.22"/>
          <polygon class="cls-9" points="119.33 241.99 112.93 254.41 134.1 248.47 140.56 241.39 119.33 241.99"/>
        </g>
      </g>
      <g>
        <polygon class="cls-2" points="185.59 329.89 165.92 276.44 197.9 258.68 194.04 258.58 196.75 251.1 180.35 156.38 191.94 155.52 169.25 150.53 166.57 134.8 173.64 128.53 148.69 122.99 127.54 95.43 130.11 92.07 121.96 80.36 231.04 40.23 246.53 0 268.88 78.04 332.85 46.06 332.96 46.65 333.62 330.83 300.91 332.05 274.09 330.48 273.89 327.76 234.45 327.87 234.38 330.83 185.59 329.89"/>
        <polygon class="cls-11" points="274.13 331.07 274 329.29 286.34 306.87 309.74 298.58 303.67 324.01 300.91 332.05 274.13 331.07"/>
        <polygon class="cls-1" points="200.03 48.44 208.58 76.05 130.11 92.07 121.96 80.36 200.03 48.44"/>
        <polygon class="cls-1" points="210.78 84.23 214.24 110.77 254.36 129.98 270.04 130.77 148.69 122.99 127.54 95.43 210.78 84.23"/>
        <polygon class="cls-1" points="220.16 132.81 224.27 158.62 169.25 150.53 166.57 134.8 220.16 132.81"/>
        <polygon class="cls-1" points="196.75 251.1 203.01 255.12 248.19 256.39 266.09 178.16 180.35 156.38 196.75 251.1"/>
        <polygon class="cls-1" points="216.34 267.45 215.07 257.87 205.86 257.49 197.9 258.68 216.34 267.45"/>
        <polygon class="cls-1" points="221.14 277.48 209.14 322.58 217.7 326.21 234.38 330.83 185.59 329.89 165.92 276.44 221.14 277.48"/>
        <polygon class="cls-11" points="231.04 40.23 246.53 0 130.18 60.3 121.96 80.36 231.04 40.23"/>
        <polygon class="cls-11" points="210.78 84.23 231.27 81.42 208.58 76.05 130.11 92.07 127.54 95.43 210.78 84.23"/>
        <polygon class="cls-11" points="173.64 128.53 166.57 134.8 221.45 140.91 270.04 130.77 173.64 128.53"/>
        <polygon class="cls-11" points="191.94 155.52 180.35 156.38 266.09 178.16 293.29 159.17 224.27 158.62 191.94 155.52"/>
        <polygon class="cls-11" points="196.33 259.55 165.92 276.44 221.14 277.48 252.84 263.55 216.73 264.14 196.33 259.55"/>
        <polygon class="cls-11" points="268.88 182.58 280.9 172.38 293.74 169.38 281.69 226.11 268.88 182.58"/>
        <polygon class="cls-11" points="223.57 296.4 264.61 261.33 335.48 238.82 272.18 304.43 223.57 296.4"/>
        <polygon class="cls-11" points="223.88 300.64 246.98 303.9 235.23 305.69 223.88 300.64"/>
        <polygon class="cls-11" points="220.36 280.4 232.76 275.47 223.64 284.16 219.64 284.1 220.36 280.4"/>
        <polygon class="cls-11" points="252.93 139.95 285.55 136.85 292.42 139.14 261.57 143.26 252.93 139.95"/>
        <polygon class="cls-11" points="266.09 106.41 317.31 111.12 302.58 97.3 266.09 106.41"/>
        <polygon class="cls-11" points="333.16 134.82 293.74 169.38 333.18 143.64 333.16 134.82"/>
        <polygon class="cls-11" points="332.85 46.06 216.51 105.56 300.45 97.9 332.96 89.65 332.85 46.06"/>
        <polygon class="cls-11" points="234.8 80.97 258.26 75.1 248.43 80.18 234.8 80.97"/>
        <polygon class="cls-11" points="303.67 324.01 310.14 312.12 330.39 306.34 319.26 315.22 303.67 324.01"/>
        <polygon class="cls-11" points="232.62 327.82 248.97 320.71 263.77 318.77 244.81 326.2 232.62 327.82"/>
        <polygon class="cls-11" points="231.08 323.19 236.32 319.95 241.41 319.98 233.42 322.93 231.08 323.19"/>
        <polygon class="cls-11" points="282.92 301.17 295.63 285.31 320.54 272.75 320.65 279.34 282.92 301.17"/>
        <polygon class="cls-11" points="322.41 279.38 333.39 275.15 333.38 268.51 322.41 279.38"/>
        <polygon class="cls-11" points="306.25 328.15 317.72 320.01 333.48 313.89 333.5 321.58 306.25 328.15"/>
        <polygon class="cls-11" points="324.92 302.58 330.35 298.79 332.62 300.73 324.92 302.58"/>
        <polygon class="cls-11" points="272.35 306.77 281.85 301.16 283.64 300.28 265.07 315.5 272.35 306.77"/>
        <polygon class="cls-11" points="296.1 237.37 302.21 220.36 323.95 180.68 307.94 237.8 296.1 237.37"/>
        <polygon class="cls-11" points="291.69 239.53 280.18 242.42 277.63 244.91 288.08 243.4 291.69 239.53"/>
        <polygon class="cls-11" points="188.01 311.6 208.61 305.51 207.03 308.6 189 317.34 188.01 311.6"/>
        <g class="cls-13">
          <polygon class="cls-5" points="231.27 81.42 231.27 98.01 234.8 95.43 233.04 80.97 231.27 81.42"/>
          <polygon class="cls-5" points="231.04 40.23 236.82 80.36 258.26 75.1 248.43 80.18 247.93 89.49 268.88 78.04 246.53 0 231.04 40.23"/>
          <polygon class="cls-5" points="317.31 111.12 310.03 155.52 333.16 134.82 332.96 89.65 302.58 97.3 317.31 111.12"/>
          <polygon class="cls-5" points="292.42 139.14 289.89 158.62 293.29 159.17 292.42 139.14"/>
          <polygon class="cls-5" points="252.93 139.95 254.27 158.86 249.96 158.62 246.53 136.85 270.04 130.77 268.88 138.44 252.93 139.95"/>
          <polygon class="cls-5" points="281.69 226.11 282.73 241.78 291.69 239.53 293.74 169.38 281.69 226.11"/>
          <polygon class="cls-5" points="307.94 237.8 307.94 247.57 314.58 245.46 323.95 180.68 307.94 237.8"/>
          <polygon class="cls-5" points="223.64 284.16 225.47 294.77 230.27 290.67 232.76 275.47 223.64 284.16"/>
          <polygon class="cls-5" points="272.18 304.43 272.35 306.77 283.64 300.28 295.63 285.31 320.54 272.75 320.65 279.34 315.95 310.46 319.15 309.55 322.41 279.38 333.38 268.51 332.98 241.42 272.18 304.43"/>
          <polygon class="cls-5" points="309.74 298.58 310.14 312.12 303.67 324.01 309.74 298.58"/>
          <polygon class="cls-5" points="319.26 315.22 319.17 319.45 333.48 313.89 332.98 306.34 330.39 306.34 319.26 315.22"/>
          <polygon class="cls-5" points="306.25 328.15 305.16 331.89 300.91 332.05 303.67 324.01 312.97 318.77 313.25 323.19 306.25 328.15"/>
          <polygon class="cls-5" points="263.77 318.77 263.77 327.79 266.09 327.78 263.77 318.77"/>
          <polygon class="cls-5" points="241.41 319.98 241.41 323.29 243.27 323.19 241.41 319.98"/>
          <polygon class="cls-5" points="246.98 303.9 246.84 321.64 248.97 320.71 249.92 300.75 228.76 297.26 228.76 301.17 246.98 303.9"/>
          <polygon class="cls-5" points="223.88 300.64 223.88 312.48 219.05 312.48 209.14 322.58 216.34 295.52 223.88 300.64"/>
          <polygon class="cls-5" points="207.03 308.6 206.37 324.86 207.97 323.29 208.61 305.51 207.03 308.6"/>
          <polygon class="cls-5" points="244.81 326.2 245.81 327.79 253.1 322.95 244.81 326.2"/>
        </g>
        <polygon class="cls-11" points="199.14 330.15 213.53 331.89 227.74 312.51 219.05 312.48 199.14 330.15"/>
        <polygon class="cls-4" points="180.35 156.38 198.79 172.04 207.03 168 215.37 169.38 220.67 175.2 236.82 173.81 250.48 178.16 260.84 182.15 264.27 186.12 270.04 176.84 281.31 169.38 293.29 159.17 266.09 178.16 180.35 156.38"/>
        <polygon class="cls-4" points="166.57 134.8 171.66 136.85 177.47 136.85 195.42 140.06 207.03 147.03 215.49 143.26 220.67 143.26 222.07 144.81 224.27 141.6 229.77 140.06 231.27 140.06 236.82 139.2 239.92 137.06 221.45 140.91 166.57 134.8"/>
        <polygon class="cls-4" points="127.54 95.43 210.78 84.23 231.27 81.42 225.35 84.23 220.97 83.94 220.45 84.23 220.22 84.93 213.87 85.22 211.59 84.55 210.36 84.79 194.02 89.49 188.05 88.42 173.37 92.75 156.32 98.81 145.14 96.44 141.63 95.43 131.31 95.43 127.54 95.43"/>
        <polygon class="cls-4" points="121.96 80.36 231.04 40.23 240.44 15.81 246.53 0 243.76 14.87 241.48 21.51 241.48 23.31 238.36 26.15 236.75 30.79 234.8 31.83 235.52 34.48 232.4 49.72 218.53 46.99 213.35 48.44 207.54 56.08 197.18 56.97 189.09 58.36 150.82 71.24 121.96 80.36"/>
        <polygon class="cls-4" points="183.79 276.78 221.14 277.48 252.84 263.55 242.4 269.18 236.34 271.62 234.76 273.54 225.47 276.51 220.83 278.63 219.64 284.1 206.02 279.22 202.48 277.91 200.15 278.84 183.79 276.78"/>
        <polygon class="cls-4" points="266.09 106.41 281.31 112.93 289.89 111.12 300.13 115.39 302.58 113.12 317.31 111.12 266.09 106.41"/>
        <polygon class="cls-7" points="223.22 43.11 233.04 35.03 231.45 43.11 223.22 43.11"/>
        <polygon class="cls-7" points="211.69 139.83 227.79 139.14 222.07 144.81 211.69 139.83"/>
        <polygon class="cls-7" points="261.53 177 271.15 174.62 264.76 183.79 261.53 177"/>
        <polygon class="cls-7" points="259.64 142.52 263.87 143.26 261.53 147.03 259.64 142.52"/>
        <polygon class="cls-7" points="214.4 277.48 226.2 275.12 220.36 280.4 214.4 277.48"/>
        <polygon class="cls-7" points="221.81 284.1 225.07 282.8 223.88 285.55 221.81 284.1"/>
        <polygon class="cls-7" points="267.85 303.64 276.19 300.28 272.35 306.77 267.85 303.64"/>
        <polygon class="cls-7" points="232.4 304.43 237.91 305.28 235.15 307.89 232.4 304.43"/>
        <g class="cls-12">
          <polygon class="cls-9" points="249.35 292.65 263.77 267.45 289.89 262.47 270.04 284.21 249.35 292.65"/>
          <polygon class="cls-9" points="256.55 292.65 267.85 287.51 282.92 287.51 266.34 295.52 256.55 292.65"/>
          <polygon class="cls-9" points="226.2 275.12 236.25 263.55 216.73 264.14 192.46 275.12 226.2 275.12"/>
          <polygon class="cls-9" points="204.96 261.49 185.12 276.27 165.92 276.44 196.33 259.55 204.96 261.49"/>
          <polygon class="cls-9" points="235.75 170.45 249.96 158.62 224.27 158.62 206.08 156.88 200.45 161.48 235.75 170.45"/>
          <polygon class="cls-9" points="242.02 168.38 249.96 162.06 259.64 162.06 252 167.62 242.02 168.38"/>
          <polygon class="cls-9" points="250.83 174.28 266.34 168.38 268.88 169.38 258.28 176.18 250.83 174.28"/>
          <polygon class="cls-9" points="192.1 137.64 204.96 129.26 181.39 128.53 172.68 135.48 192.1 137.64"/>
          <polygon class="cls-9" points="199.45 134.82 214.36 130.77 224.27 133.09 215.75 136.85 199.45 134.82"/>
          <polygon class="cls-9" points="278.43 73.89 263.87 97.3 286.05 99.22 300.45 97.9 325.55 49.71 278.43 73.89"/>
          <polygon class="cls-9" points="317.31 76.05 325.55 64.23 332.89 62.9 325.1 74.46 317.31 76.05"/>
          <polygon class="cls-9" points="158.19 67.03 190.23 40.18 188.82 29.91 130.65 60.05 121.96 80.36 158.19 67.03"/>
          <polygon class="cls-9" points="187.01 48.44 208.58 32.97 233.04 24.82 229.64 33.35 187.01 48.44"/>
          <polygon class="cls-9" points="185.62 50.97 187.01 49.26 198.06 46.06 197.12 47.49 185.62 50.97"/>
          <polygon class="cls-9" points="168.73 84.23 162.85 86.78 160.48 88.29 177.06 87.44 187.01 83.37 168.73 84.23"/>
          <polygon class="cls-9" points="313.01 245.96 302.78 259.55 296.1 275.94 302.74 272.75 330.61 240.37 313.01 245.96"/>
        </g>
        <g class="cls-12">
          <polygon class="cls-10" points="281.27 185.08 283.88 183.73 281.27 187.5 281.27 185.08"/>
          <polygon class="cls-10" points="258.63 239.7 261.43 243.41 264.43 243.86 258.63 239.7"/>
          <polygon class="cls-10" points="162.41 73.8 165.21 77.51 168.21 77.96 162.41 73.8"/>
          <polygon class="cls-10" points="293.06 258.34 291.03 254.43 293.06 254.89 296.45 257.56 293.06 258.34"/>
          <polygon class="cls-10" points="172.83 290.06 170.72 288.19 171.98 286.75 176.01 289.6 172.83 290.06"/>
          <polygon class="cls-10" points="252.56 97.08 250.45 95.21 251.71 93.77 255.74 96.62 252.56 97.08"/>
          <polygon class="cls-10" points="174.21 286.75 176.01 287.03 176.01 285.94 174.21 286.75"/>
          <polygon class="cls-10" points="225.25 237.94 230.44 237.3 232.53 235.66 225.25 237.94"/>
          <polygon class="cls-10" points="222.95 240.77 225.58 240.18 223.91 241.99 222.95 240.77"/>
          <polygon class="cls-10" points="210.53 285.38 214.99 284.4 212.19 286.69 210.53 285.38"/>
          <polygon class="cls-10" points="140.83 59.22 145.3 58.24 142.49 60.53 140.83 59.22"/>
          <polygon class="cls-10" points="321.72 119.19 326.19 118.21 323.38 120.5 321.72 119.19"/>
          <polygon class="cls-10" points="162.6 119.35 164.34 121.72 166.46 122.4 163.54 119.35 162.6 119.35"/>
          <polygon class="cls-10" points="132.05 78.72 133.7 83.22 135.24 83.22 133.06 79.48 132.05 78.72"/>
        </g>
        <polygon class="cls-8" points="293.29 159.17 297.57 166.03 302.78 162.6 305.81 172.28 301.79 189.28 299.55 189.28 293.29 204.92 302.21 220.36 311.97 223.45 316 235.66 319.45 239.7 332.98 243.86 332.98 241.42 331.71 242.91 320.02 238.82 316.48 234.88 312.06 223.07 303.92 220.61 302.31 219.25 296.1 208.37 294.6 202.71 299.62 189.51 302.26 189.4 303.75 182.3 306.38 172.02 303.36 163.1 302.56 161.65 298.93 164.78 297.38 165.09 293.29 159.17"/>
        <polygon class="cls-7" points="293.48 204.92 295.61 208.65 295.89 208.35 294.48 203.32 293.48 204.92"/>
        <polygon class="cls-7" points="319.55 239.53 319.66 238.69 320.12 238.99 321.49 239.53 321.69 240.37 319.55 239.53"/>
        <polygon class="cls-8" points="160.48 44.59 182.53 52.42 181.01 53.43 180.88 56.21 187.61 56.21 184.24 65.31 177.51 82.39 182.12 85.37 184.24 87.8 179.41 119.35 179.41 124.96 183.41 128.53 179.86 124.86 179.72 120.22 184.24 91.61 187.01 87.43 184.64 86.56 182.27 84.6 178.2 81.95 188.95 55.72 183.2 55.94 181.66 55.13 181.28 53.57 183.13 52.2 160.48 44.59"/>
        <polygon class="cls-7" points="184.11 86.56 184.47 88.29 184.24 90.58 186.55 87.63 184.11 86.56"/>
        <polygon class="cls-8" points="180.39 268.41 193.55 273.82 194.21 276.51 198.31 279.87 195.82 296.34 190.8 303.17 185.44 305.69 179.64 313.73 180.18 315.19 184.57 307.23 185.47 305.92 190.89 303.64 195.31 297.23 196.15 296.62 198.31 280.31 198.73 279.43 194.95 276.99 194.29 274.03 191.37 271.61 180.39 268.41"/>
        <polygon class="cls-7" points="191.17 271.67 188.28 270.99 188.09 271.22 192.14 273.03 192.46 273.03 191.17 271.67"/>
      </g>
    </g>
  </g>
</svg>