<?xml version="1.0" encoding="UTF-8"?>
<svg xmlns="http://www.w3.org/2000/svg" xmlns:xlink="http://www.w3.org/1999/xlink" viewBox="0 0 318.79 358.56">
  <defs>
    <style>
      .cls-1, .cls-2, .cls-3, .cls-4, .cls-5, .cls-6, .cls-7, .cls-8, .cls-9 {
        stroke-width: 0px;
      }

      .cls-1, .cls-10 {
        mix-blend-mode: soft-light;
      }

      .cls-1, .cls-3, .cls-4 {
        fill: #828bc4;
      }

      .cls-2 {
        fill: url(#_ÂÁ_Ï_ÌÌ_È_ËÂÌÚ_216);
      }

      .cls-3 {
        opacity: .5;
      }

      .cls-3, .cls-11 {
        mix-blend-mode: multiply;
      }

      .cls-12 {
        isolation: isolate;
      }

      .cls-11 {
        opacity: .6;
      }

      .cls-5 {
        fill: #2756a6;
      }

      .cls-6 {
        fill: #282f72;
      }

      .cls-7 {
        fill: #8ba1cf;
      }

      .cls-8 {
        fill: #b4c5e5;
      }

      .cls-9 {
        fill: #326bb3;
      }
    </style>
    <linearGradient id="_ÂÁ_Ï_ÌÌ_È_ËÂÌÚ_216" data-name="¡ÂÁ˚ÏˇÌÌ˚È „‡‰ËÂÌÚ 216" x1="158.79" y1="358.56" x2="158.79" y2="0" gradientUnits="userSpaceOnUse">
      <stop offset="0" stop-color="#2d54a4"/>
      <stop offset=".51" stop-color="#2c3f94"/>
      <stop offset=".99" stop-color="#2c318a"/>
    </linearGradient>
  </defs>
  <g class="cls-12">
    <g id="layer1">
      <g>
        <polygon class="cls-2" points=".32 0 155.34 37.33 153.18 42.44 317.26 40.36 284.14 97.43 264.3 103.47 247.58 106.79 248.98 120.43 230.87 162.54 236.4 161.46 251.35 173.73 164.82 288.32 160.65 294.06 175.42 317.08 157.44 331.48 148.3 336.49 146.54 338.87 168.02 332.49 189.11 337.39 128.86 348.21 83.41 358.56 .32 357.5 .32 0"/>
        <polygon class="cls-9" points="160.65 294.06 62.66 303.17 119.95 327.46 175.42 317.08 160.65 294.06"/>
        <polygon class="cls-9" points="168.02 332.49 130.81 343.15 189.11 337.39 168.02 332.49"/>
        <polygon class="cls-9" points="114.1 343.63 99.05 344.06 85.79 345.79 113.11 347.01 114.1 343.63"/>
        <polygon class="cls-9" points="48.65 307.39 76.63 325.23 73.23 346.12 18.32 312.39 48.65 307.39"/>
        <polygon class="cls-9" points="37.91 328.37 58.08 340.59 46.2 341.68 37.91 328.37"/>
        <polygon class="cls-9" points="236.4 161.46 130.05 148.93 251.35 173.73 236.4 161.46"/>
        <polygon class="cls-9" points="248.98 120.43 193.2 126.79 188.24 119.79 247.58 106.79 248.98 120.43"/>
        <polygon class="cls-9" points=".32 238.58 61.62 236.08 166.28 268.65 174.63 275.24 107.23 283.7 .32 252.54 .32 238.58"/>
        <polygon class="cls-9" points="317.26 40.36 209.16 79.4 85.95 68.79 153.18 42.44 317.26 40.36"/>
        <polygon class="cls-9" points="87.47 73.51 141.6 82.65 155.34 95.48 87.47 73.51"/>
        <polygon class="cls-9" points=".32 329.15 63.76 356.66 33.28 353.97 .32 336.06 .32 329.15"/>
        <polygon class="cls-9" points="9.82 343.24 24.99 353.14 16.09 353.29 9.82 343.24"/>
        <polygon class="cls-9" points="78.9 325.68 99.83 332.26 93.89 328.11 78.9 325.68"/>
        <polygon class="cls-9" points=".32 288.96 62.66 303.17 26.83 306.18 .32 297.13 .32 288.96"/>
        <polygon class="cls-9" points="1.56 305.37 10.34 307.87 15.78 314.3 1.56 305.37"/>
        <polygon class="cls-9" points="83.41 358.56 74.15 346.7 82.49 345.88 96.16 356.37 83.41 358.56"/>
        <polygon class="cls-9" points="32.48 325.78 39.35 333.51 22.64 326.42 32.48 325.78"/>
        <polygon class="cls-9" points=".32 338.11 9.82 343.24 .32 340.86 .32 338.11"/>
        <polygon class="cls-9" points="121.06 184.24 155.34 199.32 137.88 186.49 121.06 184.24"/>
        <polygon class="cls-9" points=".32 81.92 55.76 74.41 130.05 148.93 6.14 137.82 1.79 125.87 .32 81.92"/>
        <polygon class="cls-9" points=".32 142.29 10.02 143.04 33.94 154.81 .32 150.26 .32 142.29"/>
        <polygon class="cls-9" points="184.99 118.37 141.6 111.02 141.6 117.97 184.99 118.37"/>
        <polygon class="cls-1" points="209.16 79.4 214.18 109.96 284.14 97.43 317.26 40.36 209.16 79.4"/>
        <polygon class="cls-1" points="193.2 126.79 193.2 157.58 230.87 162.54 248.98 120.43 193.2 126.79"/>
        <polygon class="cls-1" points="107.23 283.7 111.38 298.64 160.65 294.06 174.63 275.24 107.23 283.7"/>
        <polygon class="cls-1" points="119.95 327.46 114.1 343.63 130.81 343.15 146.54 338.87 157.44 331.48 175.42 317.08 119.95 327.46"/>
        <polygon class="cls-9" points="47.99 62.48 76.63 87.76 111.38 96.35 63.76 62.48 47.99 62.48"/>
        <polygon class="cls-9" points="91.67 93.57 102.79 96.35 111.38 108.98 91.67 93.57"/>
        <polygon class="cls-9" points="155.34 91.46 209.16 101.27 214.58 106.79 183.23 108.98 150.16 93.57 155.34 91.46"/>
        <polygon class="cls-9" points="58.08 167.34 114.1 182.08 117.44 178.75 83.89 167.34 58.08 167.34"/>
        <polygon class="cls-9" points="155.34 37.33 51.63 51.5 .32 46.99 .32 0 155.34 37.33"/>
        <g class="cls-11">
          <polygon class="cls-4" points="18.32 312.39 20.31 337.82 14.37 335.24 15.78 314.3 18.32 312.39"/>
          <polygon class="cls-4" points="74.15 348.13 68.87 357.91 74.15 346.7 74.15 348.13"/>
          <g>
            <polygon class="cls-4" points="107.23 283.7 96.16 300.06 60.39 302.66 .32 288.96 .32 252.54 107.23 283.7"/>
            <polygon class="cls-4" points="58.08 167.34 61.62 236.08 55.44 236.33 58.08 167.34"/>
            <polygon class="cls-4" points="10.02 143.04 11.4 138.29 6.14 137.82 1.79 125.87 .32 142.29 10.02 143.04"/>
            <polygon class="cls-4" points="26.83 306.18 25.48 311.2 18.32 312.39 15.78 314.3 10.34 307.87 .32 305.37 .32 297.13 26.83 306.18"/>
            <polygon class="cls-4" points="62.66 303.17 62.27 316.07 76.63 325.23 93.89 328.11 99.83 332.26 101.27 344 114.1 343.63 119.95 327.46 62.66 303.17"/>
            <polygon class="cls-4" points="33.28 353.97 32.49 357.91 24.99 357.81 24.99 353.14 9.82 343.24 .32 338.11 .32 336.06 33.28 353.97"/>
            <polygon class="cls-4" points="16.09 353.29 16.8 357.71 10.99 357.64 9.82 343.24 16.09 353.29"/>
            <polygon class="cls-4" points="39.35 333.51 39.35 346.25 44.09 348.13 46.2 341.68 37.91 328.37 36.55 330.35 39.35 333.51"/>
            <polygon class="cls-4" points="85.95 68.79 84.54 77.25 63.76 62.48 51.63 51.5 155.34 37.33 153.18 42.44 85.95 68.79"/>
            <polygon class="cls-4" points="76.63 87.76 76.63 95.48 55.76 74.41 45.97 75.73 47.99 62.48 76.63 87.76"/>
            <polygon class="cls-4" points="152.34 92.68 151.17 74.41 140.72 73.51 141.6 82.65 152.34 92.68"/>
            <polygon class="cls-4" points="183.23 108.98 184.99 118.37 141.6 111.02 136.75 89.46 155.34 95.48 183.23 108.98"/>
            <polygon class="cls-4" points="141.6 117.97 143.3 150.49 143.3 118.37 141.6 117.97"/>
            <polygon class="cls-4" points="91.67 93.57 90.22 108.98 88.04 106.79 88.04 91.46 98.93 93.27 98.93 95.38 91.67 93.57"/>
          </g>
          <polygon class="cls-4" points="121.06 184.24 107.23 250.27 119.95 197.78 121.06 184.24"/>
          <polygon class="cls-4" points="81.75 326.58 74.15 346.7 76.63 325.23 81.75 326.58"/>
          <polygon class="cls-4" points="85.79 345.79 87.38 349.96 82.49 345.88 85.79 345.79"/>
          <polygon class="cls-4" points="193.2 126.79 193.2 156.37 188.24 155.79 188.24 119.79 193.2 126.79"/>
        </g>
        <polygon class="cls-3" points="130.05 148.93 201.6 169.04 213.57 167.34 217.48 169.04 221.09 173.73 245.27 176.62 251.35 173.73 130.05 148.93"/>
        <polygon class="cls-3" points="151.17 74.41 201.6 83.09 204.22 78.98 210.26 86.08 216.47 83.09 221.09 78.98 275.83 57.29 278.62 63.63 287.72 65.72 307.23 48.09 309.51 48.09 317.26 40.36 209.16 79.4 151.17 74.41"/>
        <polygon class="cls-3" points="39.4 140.8 71.97 148.93 82.07 148.55 91.67 147.69 105.95 148.55 107.23 154.81 119.21 154.81 130.05 148.93 39.4 140.8"/>
        <polygon class="cls-3" points="33.94 154.81 .32 154.81 .32 150.26 33.94 154.81"/>
        <polygon class="cls-3" points=".32 252.54 22.2 268.58 26.83 268.58 31.49 264.54 34.83 264.92 37.48 266.56 43.8 266.81 48.73 271.23 58.53 273.76 68.05 273.76 71.46 275.24 82.83 285.76 96.6 285.76 100.14 283.7 104.18 285.76 107.23 285.76 112.26 283.7 130.58 283.7 139.09 279.7 158.79 277.23 107.23 283.7 .32 252.54"/>
        <polygon class="cls-3" points="62.66 303.17 66.79 309.76 79.55 317.08 83.89 314.5 84.93 317.08 84.93 318.41 88.26 320.37 91.8 317.08 92.68 318.41 93.95 318.41 105.06 322.71 114.1 328.21 114.1 336.54 116.05 338.25 130.81 328.37 134.49 327.46 134.49 329.64 138.54 327.95 139.29 325.1 156 320.71 157.48 322.71 165.19 320.71 175.42 317.08 119.95 327.46 62.66 303.17"/>
        <polygon class="cls-3" points=".32 297.13 .35 298.83 1.56 298.83 2.87 299.97 5.02 299.27 6.51 299.24 18.32 305.37 25.67 306.73 26.03 309.17 31.11 306.18 32.18 306.18 37.86 305.72 49.48 305.37 51.25 306.73 58.01 304.71 62.66 303.17 26.83 306.18 .32 297.13"/>
        <polygon class="cls-3" points="37.26 324.03 40.77 329.64 42.66 329.64 43.55 330.35 48.79 332.26 51.28 332.64 57.19 338.75 60.39 339.51 61.67 340.68 62.27 346.12 67.99 349.11 71.21 346.98 72.47 348.13 73.23 346.12 37.26 324.03"/>
        <polygon class="cls-5" points="108.73 180.66 116.1 180.08 113.4 184.24 108.73 180.66"/>
        <polygon class="cls-5" points="199.51 78.57 217.12 76.53 210 84.49 199.51 78.57"/>
        <polygon class="cls-5" points="180.02 107.43 186.41 108.76 183.73 111.67 180.02 107.43"/>
        <polygon class="cls-5" points="39.98 50.47 53.81 51.2 51.63 53.97 39.98 50.47"/>
        <polygon class="cls-5" points="72.93 84.49 79.69 88.51 76.63 90.47 72.93 84.49"/>
        <polygon class="cls-5" points="101.27 281.97 114.93 282.74 106.07 287.78 101.27 281.97"/>
        <polygon class="cls-5" points="44.87 339.53 49.17 341.41 45.44 344 44.87 339.53"/>
        <polygon class="cls-5" points="31.97 353.26 35.7 354.18 32.93 355.74 31.97 353.26"/>
        <polygon class="cls-5" points="15.24 351.93 17.72 353.26 16.41 355.29 15.24 351.93"/>
        <polygon class="cls-5" points="3.02 129.26 23.79 139.4 6.14 137.82 3.02 129.26"/>
        <g class="cls-10">
          <polygon class="cls-7" points="37.26 256.14 101.27 281.97 114.93 282.74 144.76 278.99 79.55 254.43 37.26 256.14"/>
          <polygon class="cls-7" points="83.89 250.27 99.94 258.41 122.31 258.41 91.11 250.27 83.89 250.27"/>
          <polygon class="cls-7" points="94.07 309.17 99.94 313.84 125.53 319.48 122.31 302.66 83.89 302.66 92.68 309.17 94.07 309.17"/>
          <polygon class="cls-7" points="122.31 326.53 99.83 318.41 99.83 316.07 140.93 322.71 142.58 323.22 122.31 326.53"/>
          <polygon class="cls-7" points="130.05 148.93 71.77 90.47 21.95 95.48 33.94 129.26 39.4 129.26 37.36 120.43 53.81 124.07 61.3 143.04 130.05 148.93"/>
          <polygon class="cls-7" points="23.79 117.97 17.13 103.91 9.57 106.79 18.66 118.37 23.79 117.97"/>
          <polygon class="cls-7" points="318.79 40.36 231.02 70.26 151.17 53.97 115.42 59.88 153.18 42.44 318.79 40.36"/>
          <polygon class="cls-7" points="195.51 70.26 176.81 66.22 155.34 71.78 184.99 71.78 195.51 70.26"/>
          <polygon class="cls-7" points="151.17 37.9 36.85 20.24 23.79 29.07 65.18 44.49 114.14 42.96 151.17 37.9"/>
          <polygon class="cls-7" points="45.97 40.36 .32 17.78 .32 35.59 27.76 40.36 45.97 40.36"/>
          <polygon class="cls-7" points="148.79 278.48 101.27 261 103.1 259.89 143.39 261.53 166.28 268.65 175.42 275.24 148.79 278.48"/>
          <polygon class="cls-7" points="125.53 303.17 132.47 310.76 140.93 310.76 129.69 301.67 125.53 303.17"/>
          <polygon class="cls-7" points="18.32 312.39 53.77 334.17 60.39 330.35 44.87 318.41 47.99 316.07 56.81 321.3 72.67 322.71 48.65 307.39 18.32 312.39"/>
          <polygon class="cls-7" points="62.66 336.06 68.87 338.11 68.87 335.97 62.27 333.51 62.66 336.06"/>
          <polygon class="cls-7" points="13.31 334.78 6.92 335.97 26.83 347.01 46.2 349.04 13.31 334.78"/>
          <polygon class="cls-7" points="19.93 244.45 33.06 248.62 39.76 246.54 25.23 242.94 19.93 244.45"/>
          <polygon class="cls-7" points="76 71.18 65.18 71.18 77.83 83.09 98.93 87.48 76 71.18"/>
          <polygon class="cls-7" points="111.38 62.48 125.91 66.22 112.45 69 98.93 65.74 111.38 62.48"/>
        </g>
        <g class="cls-10">
          <polygon class="cls-8" points="53.77 242.94 58.08 245.78 66.79 244.36 53.77 242.94"/>
          <polygon class="cls-8" points="158.79 236.33 162.47 232.26 174.63 227.34 158.79 241.93 158.79 236.33"/>
          <polygon class="cls-8" points="205.48 191.78 208.89 190.01 205.48 194.94 205.48 191.78"/>
          <polygon class="cls-8" points="141.69 304.33 145.36 309.17 149.27 309.76 141.69 304.33"/>
          <polygon class="cls-8" points="50.15 46.36 53.81 51.2 57.73 51.79 50.15 46.36"/>
          <polygon class="cls-8" points="169.36 318.41 166.71 313.29 169.36 313.9 173.79 317.38 169.36 318.41"/>
          <polygon class="cls-8" points="63.76 328.97 61.01 326.53 62.66 324.65 67.93 328.37 63.76 328.97"/>
          <polygon class="cls-8" points="216.42 54.38 213.66 51.94 215.31 50.06 220.58 53.78 216.42 54.38"/>
          <polygon class="cls-8" points="65.57 324.65 67.93 325.02 67.93 323.59 65.57 324.65"/>
          <polygon class="cls-8" points="13.31 294.06 19.17 297.57 22.64 297.57 13.31 294.06"/>
          <polygon class="cls-8" points="8.67 295.11 11.84 296.62 8.67 297.13 8.67 295.11"/>
          <path class="cls-8" d="m20.31,341.91l3.66,1.33c-.76,1.76-3.66-1.33-3.66-1.33Z"/>
          <polygon class="cls-8" points="121.21 337.82 127.04 336.54 123.38 339.53 121.21 337.82"/>
          <polygon class="cls-8" points="19.03 17.56 24.87 16.28 21.2 19.28 19.03 17.56"/>
          <polygon class="cls-8" points="263.84 53.38 269.68 52.11 266.02 55.1 263.84 53.38"/>
          <polygon class="cls-8" points="50.4 105.88 52.67 108.98 55.44 109.86 51.63 105.88 50.4 105.88"/>
          <polygon class="cls-8" points="3.69 90.47 5.86 96.35 7.86 96.35 5.02 91.46 3.69 90.47"/>
        </g>
        <polygon class="cls-6" points="150.16 153.04 163.3 172.01 165.69 176.62 163.55 199.54 190.72 227.34 193.2 230.56 199.85 241.93 201.18 240.17 193.93 230.51 191.04 227.34 168.54 200.43 166.88 191.48 166.07 176.62 151.35 153.29 153.57 151.7 170.24 141.49 170.37 136.58 176.56 132.28 188.24 124.83 174.22 132.98 169.29 136.71 169.98 140.49 168.89 141.93 150.16 153.04"/>
        <polygon class="cls-6" points="262.83 59.42 282.6 75.16 295.85 77.25 297.5 74.41 288.03 75.16 282.79 74.24 264.39 60.43 263.21 59.29 263.84 43.17 269.68 40.96 262.83 43.23 262.83 59.42"/>
        <polygon class="cls-6" points="114.1 343.63 136.14 339.53 138.35 335.97 159.96 329.15 159.96 329.46 139.39 335.86 138.43 336.22 135.96 339.85 126.82 342.54 125.53 342.03 114.1 343.63"/>
        <polygon class="cls-6" points="58.08 167.34 55.44 201.83 47.99 205.67 43.17 215.53 41.69 216.3 13.31 231.19 .32 234.73 0 233.97 11.98 231.08 16.34 228.66 40.74 216.57 43.41 214.45 48.01 204.79 53.91 202.26 54.99 200.81 58.08 167.34"/>
        <polygon class="cls-5" points="164.87 196.26 164.18 198.66 167.72 202.77 168.41 201.63 166.71 194.94 164.87 196.26"/>
        <polygon class="cls-5" points="165.13 192.73 165.13 186.22 166.29 184.64 165.71 192.35 165.13 192.73"/>
        <polygon class="cls-6" points="19.93 293.43 31.49 292.88 39.35 281.97 53.77 268.12 53.77 265.8 91.01 265.8 114.14 270.54 129.13 280.77 137.15 288.41 145.48 288.96 148.39 294.92 150.77 294.98 148.99 294.69 147.81 293.46 145.62 288.9 138.32 288.37 136.21 287.34 129.5 280.9 115.17 270.98 114.3 270.08 113.32 270.16 91.01 265.64 55.71 265.64 53.05 265.2 51 266.84 47.51 266.3 37.67 282.35 31.49 292.07 19.93 293.43"/>
        <polygon class="cls-5" points="51.99 267.55 51.37 266.89 52.93 265.56 53.38 265.87 53.38 268.01 51.99 267.55"/>
        <polygon class="cls-5" points="53.09 265.3 53.52 265.67 54.89 265.67 53.09 265.3"/>
        <polygon class="cls-5" points="126.03 341.41 127.04 342.47 129.86 341.64 129.19 340.82 126.03 341.41"/>
      </g>
    </g>
  </g>
</svg>