<?xml version="1.0" encoding="utf-8"?>
<!-- Generator: Adobe Illustrator 28.0.0, SVG Export Plug-In . SVG Version: 6.00 Build 0)  -->
<svg version="1.1" id="seabed" xmlns="http://www.w3.org/2000/svg" xmlns:xlink="http://www.w3.org/1999/xlink" x="0px" y="0px"
	 viewBox="0 0 300.4 122" style="enable-background:new 0 0 300.4 122;" xml:space="preserve">
<style type="text/css">
	.st0{fill:#FF9900;}
	.st1{fill:#FFDCA9;}
	.st2{opacity:0.1;}
	.st3{fill:#C7C7C7;}
	.st4{fill:#BDBDBD;}
	.st5{fill:#EDEDED;}
	.st6{fill:#DEDEDE;}
</style>
<g>
	<rect x="167.8" y="24.7" class="st0" width="22.2" height="29.3"/>
	<rect x="167.8" y="31.7" class="st1" width="22.2" height="3.2"/>
	<rect x="182.9" y="24.7" class="st2" width="7.1" height="29.3"/>
	<rect x="200" y="24.7" class="st0" width="22.2" height="29.3"/>
	<rect x="200" y="31.7" class="st1" width="22.2" height="3.2"/>
	<rect x="215.1" y="24.7" class="st2" width="7.1" height="29.3"/>
	<path class="st3" d="M262.8,64.6c-1.5-10.6-10.7-18.4-21.4-18.4H116c-2.4,15.3-5.6,30.5-8.2,45.8c35.9,4.5,75.2,9.3,76.8,9.2
		c2.9-0.2,79.4-4.6,79.4-20.9C264,75,263.5,69.5,262.8,64.6z"/>
	<path class="st4" d="M91.7,37.8c0,0-29,44.3-30.7,45.4c0,0,33.5,4.2,69.9,8.8c3-18.1,6.8-36.1,9.7-54.2H91.7z"/>
	<path class="st5" d="M282.3,80.3H9.2c0,0,12.5,41.7,36,41.7H250c9.9,0,18.8-6.1,22.3-15.4L282.3,80.3z"/>
	<path class="st6" d="M32.1,87.9h247.2l2.9-7.6H9.2c0,0,12.5,41.7,36,41.7h6.2C38.7,110,32.1,87.9,32.1,87.9z"/>
	<g>
		<path class="st2" d="M79.1,73.7c0,1.1-0.9,2.1-2.1,2.1S75,74.8,75,73.7s0.9-2.1,2.1-2.1S79.1,72.5,79.1,73.7z"/>
		<path class="st2" d="M89.2,73.7c0,1.1-0.9,2.1-2.1,2.1s-2.1-0.9-2.1-2.1s0.9-2.1,2.1-2.1S89.2,72.5,89.2,73.7z"/>
		<path class="st2" d="M99.3,73.7c0,1.1-0.9,2.1-2.1,2.1s-2.1-0.9-2.1-2.1s0.9-2.1,2.1-2.1S99.3,72.5,99.3,73.7z"/>
		<path class="st2" d="M109.4,73.7c0,1.1-0.9,2.1-2.1,2.1s-2.1-0.9-2.1-2.1s0.9-2.1,2.1-2.1S109.4,72.5,109.4,73.7z"/>
		<path class="st2" d="M119.5,73.7c0,1.1-0.9,2.1-2.1,2.1s-2.1-0.9-2.1-2.1s0.9-2.1,2.1-2.1S119.5,72.5,119.5,73.7z"/>
		<path class="st2" d="M129.5,73.7c0,1.1-0.9,2.1-2.1,2.1c-1.1,0-2.1-0.9-2.1-2.1s0.9-2.1,2.1-2.1C128.6,71.6,129.5,72.5,129.5,73.7
			z"/>
		<path class="st2" d="M139.6,73.7c0,1.1-0.9,2.1-2.1,2.1s-2.1-0.9-2.1-2.1s0.9-2.1,2.1-2.1S139.6,72.5,139.6,73.7z"/>
		<path class="st2" d="M149.7,73.7c0,1.1-0.9,2.1-2.1,2.1s-2.1-0.9-2.1-2.1s0.9-2.1,2.1-2.1S149.7,72.5,149.7,73.7z"/>
		<path class="st2" d="M159.8,73.7c0,1.1-0.9,2.1-2.1,2.1s-2.1-0.9-2.1-2.1s0.9-2.1,2.1-2.1S159.8,72.5,159.8,73.7z"/>
		<path class="st2" d="M169.9,73.7c0,1.1-0.9,2.1-2.1,2.1c-1.1,0-2.1-0.9-2.1-2.1s0.9-2.1,2.1-2.1C169,71.6,169.9,72.5,169.9,73.7z"
			/>
		<path class="st2" d="M180,73.7c0,1.1-0.9,2.1-2.1,2.1s-2.1-0.9-2.1-2.1s0.9-2.1,2.1-2.1S180,72.5,180,73.7z"/>
		<path class="st2" d="M190,73.7c0,1.1-0.9,2.1-2.1,2.1s-2.1-0.9-2.1-2.1s0.9-2.1,2.1-2.1S190,72.5,190,73.7z"/>
		<path class="st2" d="M200.1,73.7c0,1.1-0.9,2.1-2.1,2.1s-2.1-0.9-2.1-2.1s0.9-2.1,2.1-2.1S200.1,72.5,200.1,73.7z"/>
		<path class="st2" d="M210.2,73.7c0,1.1-0.9,2.1-2.1,2.1s-2.1-0.9-2.1-2.1s0.9-2.1,2.1-2.1S210.2,72.5,210.2,73.7z"/>
		<path class="st2" d="M220.3,73.7c0,1.1-0.9,2.1-2.1,2.1s-2.1-0.9-2.1-2.1s0.9-2.1,2.1-2.1S220.3,72.5,220.3,73.7z"/>
		<path class="st2" d="M230.4,73.7c0,1.1-0.9,2.1-2.1,2.1s-2.1-0.9-2.1-2.1s0.9-2.1,2.1-2.1S230.4,72.5,230.4,73.7z"/>
		<path class="st2" d="M240.5,73.7c0,1.1-0.9,2.1-2.1,2.1s-2.1-0.9-2.1-2.1s0.9-2.1,2.1-2.1S240.5,72.5,240.5,73.7z"/>
		<path class="st2" d="M250.5,73.7c0,1.1-0.9,2.1-2.1,2.1c-1.1,0-2.1-0.9-2.1-2.1s0.9-2.1,2.1-2.1C249.6,71.6,250.5,72.5,250.5,73.7
			z"/>
	</g>
	<g>
		<path class="st2" d="M82.1,62.8c0,1.1-0.9,2.1-2.1,2.1s-2.1-0.9-2.1-2.1s0.9-2.1,2.1-2.1S82.1,61.7,82.1,62.8z"/>
		<path class="st2" d="M92.2,62.8c0,1.1-0.9,2.1-2.1,2.1S88,64,88,62.8s0.9-2.1,2.1-2.1S92.2,61.7,92.2,62.8z"/>
		<path class="st2" d="M102.3,62.8c0,1.1-0.9,2.1-2.1,2.1c-1.1,0-2.1-0.9-2.1-2.1s0.9-2.1,2.1-2.1C101.3,60.7,102.3,61.7,102.3,62.8
			z"/>
		<path class="st2" d="M112.3,62.8c0,1.1-0.9,2.1-2.1,2.1s-2.1-0.9-2.1-2.1s0.9-2.1,2.1-2.1S112.3,61.7,112.3,62.8z"/>
		<path class="st2" d="M122.4,62.8c0,1.1-0.9,2.1-2.1,2.1s-2.1-0.9-2.1-2.1s0.9-2.1,2.1-2.1S122.4,61.7,122.4,62.8z"/>
		<path class="st2" d="M132.5,62.8c0,1.1-0.9,2.1-2.1,2.1c-1.1,0-2.1-0.9-2.1-2.1s0.9-2.1,2.1-2.1C131.6,60.7,132.5,61.7,132.5,62.8
			z"/>
		<path class="st2" d="M142.6,62.8c0,1.1-0.9,2.1-2.1,2.1s-2.1-0.9-2.1-2.1s0.9-2.1,2.1-2.1S142.6,61.7,142.6,62.8z"/>
		<path class="st2" d="M152.7,62.8c0,1.1-0.9,2.1-2.1,2.1s-2.1-0.9-2.1-2.1s0.9-2.1,2.1-2.1S152.7,61.7,152.7,62.8z"/>
		<path class="st2" d="M162.8,62.8c0,1.1-0.9,2.1-2.1,2.1c-1.1,0-2.1-0.9-2.1-2.1s0.9-2.1,2.1-2.1C161.8,60.7,162.8,61.7,162.8,62.8
			z"/>
		<path class="st2" d="M172.8,62.8c0,1.1-0.9,2.1-2.1,2.1s-2.1-0.9-2.1-2.1s0.9-2.1,2.1-2.1S172.8,61.7,172.8,62.8z"/>
		<path class="st2" d="M182.9,62.8c0,1.1-0.9,2.1-2.1,2.1s-2.1-0.9-2.1-2.1s0.9-2.1,2.1-2.1S182.9,61.7,182.9,62.8z"/>
		<path class="st2" d="M193,62.8c0,1.1-0.9,2.1-2.1,2.1c-1.1,0-2.1-0.9-2.1-2.1s0.9-2.1,2.1-2.1C192.1,60.7,193,61.7,193,62.8z"/>
		<path class="st2" d="M203.1,62.8c0,1.1-0.9,2.1-2.1,2.1s-2.1-0.9-2.1-2.1s0.9-2.1,2.1-2.1S203.1,61.7,203.1,62.8z"/>
		<path class="st2" d="M213.2,62.8c0,1.1-0.9,2.1-2.1,2.1S209,64,209,62.8s0.9-2.1,2.1-2.1S213.2,61.7,213.2,62.8z"/>
		<path class="st2" d="M223.3,62.8c0,1.1-0.9,2.1-2.1,2.1c-1.1,0-2.1-0.9-2.1-2.1s0.9-2.1,2.1-2.1C222.3,60.7,223.3,61.7,223.3,62.8
			z"/>
		<path class="st2" d="M233.3,62.8c0,1.1-0.9,2.1-2.1,2.1s-2.1-0.9-2.1-2.1s0.9-2.1,2.1-2.1S233.3,61.7,233.3,62.8z"/>
		<path class="st2" d="M243.4,62.8c0,1.1-0.9,2.1-2.1,2.1s-2.1-0.9-2.1-2.1s0.9-2.1,2.1-2.1S243.4,61.7,243.4,62.8z"/>
		<path class="st2" d="M253.5,62.8c0,1.1-0.9,2.1-2.1,2.1c-1.1,0-2.1-0.9-2.1-2.1s0.9-2.1,2.1-2.1C252.6,60.7,253.5,61.7,253.5,62.8
			z"/>
	</g>
	<g>
		<path class="st2" d="M95.1,51.9c0,1.1-0.9,2.1-2.1,2.1c-1.1,0-2.1-0.9-2.1-2.1s0.9-2.1,2.1-2.1C94.2,49.9,95.1,50.8,95.1,51.9z"/>
		<path class="st2" d="M105.2,51.9c0,1.1-0.9,2.1-2.1,2.1c-1.1,0-2.1-0.9-2.1-2.1s0.9-2.1,2.1-2.1C104.3,49.9,105.2,50.8,105.2,51.9
			z"/>
		<path class="st2" d="M115.3,51.9c0,1.1-0.9,2.1-2.1,2.1c-1.1,0-2.1-0.9-2.1-2.1s0.9-2.1,2.1-2.1C114.4,49.9,115.3,50.8,115.3,51.9
			z"/>
		<path class="st2" d="M125.4,51.9c0,1.1-0.9,2.1-2.1,2.1s-2.1-0.9-2.1-2.1s0.9-2.1,2.1-2.1S125.4,50.8,125.4,51.9z"/>
		<path class="st2" d="M135.5,51.9c0,1.1-0.9,2.1-2.1,2.1s-2.1-0.9-2.1-2.1s0.9-2.1,2.1-2.1S135.5,50.8,135.5,51.9z"/>
		<path class="st2" d="M145.6,51.9c0,1.1-0.9,2.1-2.1,2.1c-1.1,0-2.1-0.9-2.1-2.1s0.9-2.1,2.1-2.1C144.6,49.9,145.6,50.8,145.6,51.9
			z"/>
		<path class="st2" d="M155.6,51.9c0,1.1-0.9,2.1-2.1,2.1s-2.1-0.9-2.1-2.1s0.9-2.1,2.1-2.1S155.6,50.8,155.6,51.9z"/>
		<path class="st2" d="M165.7,51.9c0,1.1-0.9,2.1-2.1,2.1s-2.1-0.9-2.1-2.1s0.9-2.1,2.1-2.1S165.7,50.8,165.7,51.9z"/>
		<path class="st2" d="M175.8,51.9c0,1.1-0.9,2.1-2.1,2.1c-1.1,0-2.1-0.9-2.1-2.1s0.9-2.1,2.1-2.1C174.9,49.9,175.8,50.8,175.8,51.9
			z"/>
		<path class="st2" d="M185.9,51.9c0,1.1-0.9,2.1-2.1,2.1c-1.1,0-2.1-0.9-2.1-2.1s0.9-2.1,2.1-2.1C185,49.9,185.9,50.8,185.9,51.9z"
			/>
		<path class="st2" d="M196,51.9c0,1.1-0.9,2.1-2.1,2.1s-2.1-0.9-2.1-2.1s0.9-2.1,2.1-2.1S196,50.8,196,51.9z"/>
		<path class="st2" d="M206.1,51.9c0,1.1-0.9,2.1-2.1,2.1c-1.1,0-2.1-0.9-2.1-2.1s0.9-2.1,2.1-2.1C205.1,49.9,206.1,50.8,206.1,51.9
			z"/>
		<path class="st2" d="M216.1,51.9c0,1.1-0.9,2.1-2.1,2.1c-1.1,0-2.1-0.9-2.1-2.1s0.9-2.1,2.1-2.1C215.2,49.9,216.1,50.8,216.1,51.9
			z"/>
		<path class="st2" d="M226.2,51.9c0,1.1-0.9,2.1-2.1,2.1s-2.1-0.9-2.1-2.1s0.9-2.1,2.1-2.1S226.2,50.8,226.2,51.9z"/>
		<path class="st2" d="M236.3,51.9c0,1.1-0.9,2.1-2.1,2.1c-1.1,0-2.1-0.9-2.1-2.1s0.9-2.1,2.1-2.1C235.4,49.9,236.3,50.8,236.3,51.9
			z"/>
		<path class="st2" d="M246.4,51.9c0,1.1-0.9,2.1-2.1,2.1s-2.1-0.9-2.1-2.1s0.9-2.1,2.1-2.1S246.4,50.8,246.4,51.9z"/>
	</g>
	<path class="st0" d="M280.5,85l1.8-4.8H9.2c0,0,0.6,1.8,1.6,4.8H280.5z"/>
</g>
</svg>
