<?xml version="1.0" encoding="UTF-8"?>
<svg id="layer1" xmlns="http://www.w3.org/2000/svg" viewBox="0 0 135.07 59.73">
  <defs>
    <style>
      .cls-1 {
        fill: #ceeaf0;
      }

      .cls-1, .cls-2, .cls-3 {
        stroke-width: 0px;
      }

      .cls-2 {
        fill: #fff;
      }

      .cls-3 {
        fill: #e9f4f6;
      }
    </style>
  </defs>
  <path class="cls-3" d="m132.17,44.89c-2.21,2.7-5.38,3.45-6.52,3.65-3.22.57-3.98-.84-7.7-.26-2.44.38-4.29,1.33-6,2.22-2.48,1.28-2.9,1.98-5.35,3.39,0,0-2.69,1.55-6.26,2.74-6.38,2.12-15.86,1.2-23.77-2.67-5.3-2.6-6.31-4.79-9.77-4.46-3.42.33-4.59,2.69-9.63,3.07-3.03.23-5.34-.41-6.02-.62-1.19-.36-1.41-.62-2.16-.9-4.45-1.61-7.9,2.8-13.39,2.43-2.08-.14-2.69-.84-5.21-1.79-11.14-4.19-17.74,2.56-24.77-1.87C2.36,47.76-.42,43.84.07,40.25c.67-4.9,7.33-8.72,12.64-8.38,4.08.26,5.35,2.84,8.24,1.97,2.85-.86,3.2-3.85,6.34-8.01,2.79-3.69,6.37-6.43,8.91-7.7,10.04-5.05,19.92,4.66,25.68-.3,2.87-2.47.79-5.21,4.64-9.78,4.58-5.44,11.27-6.01,11.64-6.04.46-.03,7.63-.42,12.57,4.6,2.27,2.3,3.3,4.82,4.04,6.68,2.36,5.93.66,8.23,2.43,9.81,3.38,3.02,9.99-4.97,20.09-3.39,7.94,1.24,12.9,7.6,13.57,8.49,2.35,3.1,2.96,5.75,3.09,6.36.29,1.37,1.38,6.45-1.79,10.32Z"/>
  <path class="cls-2" d="m91.14,19.34c2.64,3.16,4.1,6.3,4.9,8.47,5.15-2.76,9.69-4,12.72-4.61,5.35-1.08,10.29-2.08,15.51.22,4.27,1.88,6.8,5.1,8.03,6.96-.53-1.73-2.96-8.96-10.14-12.72-4.48-2.35-8.9-2.36-10.39-2.32-3.98.1-6.85,1.1-7.52,1.35-2.49.96-4.33,2.23-5.51,3.18-.41-2.47-1.57-7.26-5.33-11.76-1.47-1.75-5.5-6.61-12.55-7.8-1.48-.25-6.67-1.05-11.66,1.67-4.18,2.28-6.54,5.57-7.44,6.94-.69,1.05-1.18,1.99-1.51,2.68-2.11-1.29-8.69-4.93-17.42-3.85-1.6.2-12.16,1.68-18.5,11.12-3.07,4.57-3.89,9.11-4.14,11.62-1.26-.69-3.67-1.8-6.85-1.86-.95-.02-6.44-.13-10.12,3.85C-.43,36.42-.06,41.99.08,42.02c.1.02.21-2.55,2.14-5.01,1.81-2.3,4.2-3.19,4.89-3.44,3.64-1.31,6.84-.32,8.08.08,3.46,1.12,5.55,3.33,6.42,4.38.79-1.81,2.16-4.58,4.38-7.59,3-4.06,8.25-11.2,16.05-11.88,3.81-.33,7.25.96,10.28,2.1,2.99,1.13,5.32,2.49,6.92,3.56,2.3-3.28,6.33-7.83,12.62-10.53,2.67-1.15,5.29-2.23,8.61-1.75,5.09.74,8.35,4.64,10.67,7.41Z"/>
  <path class="cls-1" d="m107.9,54.38c3.07-2.05,2.47-2.08,4.61-3.61,5.45-3.9,13.69,1.41,19.06-3.07,1.95-1.63,3.31-4.38,3.49-7.13.13-2.06-.43-3.74-.85-4.71-.15,1.03-.65,3.64-2.79,5.92-.39.42-3.79,3.93-8.8,3.34-3.21-.38-5.29-2.24-6.01-2.95-1.94,1.48-5.55,3.7-10.26,3.79-3.44.07-6.03-1.06-8.97-2.26-3.95-1.61-6.85-3.68-8.73-5.24-.77.84-5.19,5.51-12.28,5.61-8.85.13-13.93-6.97-14.33-7.56-1.15,3.77-4.53,5.79-7.2,5.14-2.39-.58-3.48-3.12-3.64-3.49-2.56,6.05-8.25,9.85-14.1,9.55-5.87-.3-9.5-4.6-10.15-5.4-1.47,2.25-4.12,3.31-6.52,2.68-2.9-.77-3.93-3.64-4.01-3.88-.18.35-2.6,5.32-7.99,5.99-3.84.47-6.66-1.55-7.29-2.03.84,2.3,2,3.59,2.75,4.28,6.47,5.92,21.1,2.65,25.19,3.94.27.09,1.67.52,3.64.82.39.06.83.11,1.36.13,5.25.27,8.48-1.83,12.75-.97.73.15.94.28,2.08.47.66.11,2.87.46,5.76.4,4.81-.11,5.89-1.24,9.15-1.34,3.22-.11,5.58.76,9.39,2.33,4.41,1.82,8.97,3.7,13.51,4.35,10.98,1.56,20.1-4.36,21.19-5.09Z"/>
</svg>