<?xml version="1.0" encoding="utf-8"?>
<!-- Generator: Adobe Illustrator 28.0.0, SVG Export Plug-In . SVG Version: 6.00 Build 0)  -->
<svg version="1.1" id="seabed" xmlns="http://www.w3.org/2000/svg" xmlns:xlink="http://www.w3.org/1999/xlink" x="0px" y="0px"
	 viewBox="0 0 104.8 67.4" style="enable-background:new 0 0 104.8 67.4;" xml:space="preserve">
<style type="text/css">
	.st0{fill-rule:evenodd;clip-rule:evenodd;fill:url(#SVGID_1_);}
	.st1{opacity:0.5;fill-rule:evenodd;clip-rule:evenodd;fill:url(#SVGID_00000000194224377407257820000007785448407486897851_);}
	.st2{opacity:0.5;fill-rule:evenodd;clip-rule:evenodd;fill:#FFEF9B;}
	.st3{opacity:0.6;fill-rule:evenodd;clip-rule:evenodd;fill:#EEA4C7;}
</style>
<g>
	<g>
		<g>
			<g>
				<g>
					<linearGradient id="SVGID_1_" gradientUnits="userSpaceOnUse" x1="49.5501" y1="63.29" x2="49.5501" y2="7.0582">
						<stop  offset="0" style="stop-color:#FF75F8"/>
						<stop  offset="5.360344e-03" style="stop-color:#FF7AE2"/>
						<stop  offset="1.786427e-02" style="stop-color:#FF85B4"/>
						<stop  offset="3.120072e-02" style="stop-color:#FF8F8B"/>
						<stop  offset="4.515273e-02" style="stop-color:#FF9869"/>
						<stop  offset="5.989550e-02" style="stop-color:#FF9E4D"/>
						<stop  offset="7.571308e-02" style="stop-color:#FFA337"/>
						<stop  offset="9.312575e-02" style="stop-color:#FFA728"/>
						<stop  offset="0.1134" style="stop-color:#FFA91F"/>
						<stop  offset="0.143" style="stop-color:#FFAA1C"/>
						<stop  offset="0.3701" style="stop-color:#FFC33B"/>
						<stop  offset="0.7935" style="stop-color:#FFEE70"/>
						<stop  offset="1" style="stop-color:#FFFF85"/>
					</linearGradient>
					<path class="st0" d="M89.9,54.3h-9.2c-0.4,0-0.7,0-0.7,0s4,4,1.7,5.1c-2.3,1.1-21.1,8.8-46.9-1.1c-3.7-1.4,2.3-6.8,2.3-6.8
						S9.6,47.8,8.8,46.1c-0.8-1.7,30-39.9,34.8-39S54,15.3,54,15.3l33.7,35.1C87.7,50.3,91.6,54.3,89.9,54.3z"/>
					
						<linearGradient id="SVGID_00000043436353768213825880000007582695351999624360_" gradientUnits="userSpaceOnUse" x1="65.1815" y1="54.2976" x2="65.1815" y2="7.0721">
						<stop  offset="0" style="stop-color:#D95FCD"/>
						<stop  offset="0.1616" style="stop-color:#DE73D3"/>
						<stop  offset="0.4918" style="stop-color:#EAA6E3"/>
						<stop  offset="0.9579" style="stop-color:#FDF7FD"/>
						<stop  offset="1" style="stop-color:#FFFFFF"/>
					</linearGradient>
					
						<path style="opacity:0.5;fill-rule:evenodd;clip-rule:evenodd;fill:url(#SVGID_00000043436353768213825880000007582695351999624360_);" d="
						M89.9,54.3h-9.2c0,0-7-7.3-15.3-12.3c-10.2-6.1-25.1,6.9-25.4,7.2c0.4-0.4,7.4-18.7,7.6-25.2c0.2-4.3-2.1-10-4.1-16.9
						C48.4,7.9,54,15.3,54,15.3l33.7,35.1C87.7,50.3,91.6,54.3,89.9,54.3z"/>
					<path class="st2" d="M45.7,45.8c-7.5,7.1-6.2,10.2-2.5,11c3.6,0.8,18.9-3.4,17.7-12.2C60.1,37.9,49.3,42.4,45.7,45.8z"/>
					<path class="st3" d="M62.1,42.2c0.8,3.8-1.7,18.5-0.2,19.5c1.5,1.1,20.1-0.4,18.9-4.7C79.5,52.8,61,37.1,62.1,42.2z"/>
				</g>
			</g>
		</g>
	</g>
</g>
</svg>
